<?xml version="1.0" encoding="utf-8"?>
<!-- Generator: Adobe Illustrator 27.5.0, SVG Export Plug-In . SVG Version: 6.00 Build 0)  -->
<svg version="1.1" id="Layer_1" xmlns="http://www.w3.org/2000/svg" xmlns:xlink="http://www.w3.org/1999/xlink" x="0px" y="0px"
	 viewBox="0 0 3000 2000" style="enable-background:new 0 0 3000 2000;" xml:space="preserve">
<g>
	<rect transform="matrix(-1 -1.224647e-16 1.224647e-16 -1 3000 2000)" style="fill:#FFFFFF;" width="3000" height="2000"/>
	<path style="fill:#D3E4FE;" d="M460.293,821.082c131.209-45.143,176.979-677.14,759.79-361.141
		c231.774,125.667,565.51-26.407,885.111,56.713c293.515,76.336,300.263,296.535,263.152,375.807
		c-40.551,86.618,121.157,190.178,286.768,261.303c259.778,111.568,68.751,503.661-176.663,505.535
		c-245.414,1.875-2048.415-3.733-2048.415-3.733S-60.605,1000.298,460.293,821.082z"/>
	<g>
		
			<rect x="1851.099" y="646.096" transform="matrix(-1 -1.224647e-16 1.224647e-16 -1 4248.9976 1677.8229)" style="fill:#B2CBFD;" width="546.8" height="385.63"/>
		
			<rect x="1870.031" y="666.14" transform="matrix(-1 -1.224647e-16 1.224647e-16 -1 4248.9976 1677.8229)" style="fill:#FFFFFF;" width="508.936" height="345.544"/>
		
			<rect x="2397.734" y="646.096" transform="matrix(-1 -1.224647e-16 1.224647e-16 -1 4799.0869 1677.8229)" style="fill:#466AA5;" width="3.619" height="385.63"/>
		<path style="fill:#D6716B;" d="M2160.163,785.256c12.522-9.237,30.409-3.649,35.467,11.066c0.716,2.081,1.419,4.286,2.097,6.609
			c0.199,0.684,1.049,0.907,1.571,0.423c0.052-0.048,0.104-0.096,0.156-0.143c3.618-3.304,5.73-7.94,5.73-12.84l-4.574-41.164
			c-0.53-4.773,3.206-8.948,8.009-8.948h9.857c4.801,0,8.537,4.172,8.009,8.944l-4.579,41.417c0,4.96,2.121,9.695,5.86,12.954
			l0.069,0.061c0.527,0.46,1.349,0.214,1.544-0.457c0.699-2.414,1.427-4.701,2.168-6.856c5.058-14.715,22.946-20.303,35.467-11.066
			c51.112,37.703,49.781,98.385,43.755,133.195c-2.474,14.291-17.387,22.759-30.934,17.58l-33.149-12.673
			c-6.526-2.495-11.579-7.816-13.71-14.47c-9.653-30.144-11.131-56.231-9.026-77.339c0.37-3.714-0.663-7.433-2.848-10.46
			l-0.014-0.019c-3.948-5.46-6.866-6.892-7.964-6.865c-1.307,0.023-4.481,2.313-8.329,10.171c-1.255,2.562-1.728,5.43-1.463,8.27
			c1.946,20.921,0.353,46.639-9.144,76.278c-2.128,6.642-7.184,11.944-13.699,14.435l-33.149,12.673
			c-13.534,5.174-28.455-3.273-30.929-17.549C2110.383,883.677,2109.036,822.971,2160.163,785.256z"/>
		<g>
			<path style="fill:#D6716B;" d="M1913.151,855.299h103.818c2.813,0,5.114,2.301,5.114,5.114c0,2.812-2.301,5.114-5.114,5.114
				h-103.818c-2.813,0-5.114-2.302-5.114-5.114C1908.037,857.6,1910.339,855.299,1913.151,855.299z"/>
			<path style="fill:#D6716B;" d="M1913.151,876.475h103.818c2.813,0,5.114,2.302,5.114,5.115c0,2.812-2.301,5.114-5.114,5.114
				h-103.818c-2.813,0-5.114-2.301-5.114-5.114C1908.037,878.776,1910.339,876.475,1913.151,876.475z"/>
			<path style="fill:#D6716B;" d="M1913.151,900.014h103.818c2.813,0,5.114,2.301,5.114,5.114c0,2.812-2.301,5.114-5.114,5.114
				h-103.818c-2.813,0-5.114-2.302-5.114-5.114C1908.037,902.315,1910.339,900.014,1913.151,900.014z"/>
			<path style="fill:#D6716B;" d="M1913.151,923.553h103.818c2.813,0,5.114,2.301,5.114,5.114c0,2.813-2.301,5.115-5.114,5.115
				h-103.818c-2.813,0-5.114-2.302-5.114-5.115C1908.037,925.855,1910.339,923.553,1913.151,923.553z"/>
			<path style="fill:#D6716B;" d="M1913.151,744.041h103.818c2.813,0,5.114,2.301,5.114,5.114l0,0c0,2.813-2.301,5.115-5.114,5.115
				h-103.818c-2.813,0-5.114-2.302-5.114-5.115l0,0C1908.037,746.343,1910.339,744.041,1913.151,744.041z"/>
			<path style="fill:#D6716B;" d="M1913.151,765.217h103.818c2.813,0,5.114,2.302,5.114,5.114l0,0c0,2.813-2.301,5.114-5.114,5.114
				h-103.818c-2.813,0-5.114-2.301-5.114-5.114l0,0C1908.037,767.519,1910.339,765.217,1913.151,765.217z"/>
			<path style="fill:#D6716B;" d="M1913.151,788.757h103.818c2.813,0,5.114,2.301,5.114,5.114l0,0c0,2.813-2.301,5.114-5.114,5.114
				h-103.818c-2.813,0-5.114-2.301-5.114-5.114l0,0C1908.037,791.058,1910.339,788.757,1913.151,788.757z"/>
			<path style="fill:#D6716B;" d="M1913.151,812.295h103.818c2.813,0,5.114,2.301,5.114,5.114l0,0c0,2.813-2.301,5.114-5.114,5.114
				h-103.818c-2.813,0-5.114-2.301-5.114-5.114l0,0C1908.037,814.597,1910.339,812.295,1913.151,812.295z"/>
		</g>
		<path style="fill:#D6716B;" d="M2043.123,785.077h25.659c4.229,0,7.689-3.46,7.689-7.688V751.73c0-4.229-3.46-7.688-7.689-7.688
			h-25.659c-4.229,0-7.689,3.459-7.689,7.688v25.659C2035.434,781.617,2038.894,785.077,2043.123,785.077z"/>
		<path style="fill:#D6716B;" d="M2043.123,896.334h25.659c4.229,0,7.689-3.459,7.689-7.688v-25.659c0-4.228-3.46-7.688-7.689-7.688
			h-25.659c-4.229,0-7.689,3.46-7.689,7.688v25.659C2035.434,892.875,2038.894,896.334,2043.123,896.334z"/>
		<polygon style="fill:#FFFFFF;" points="2068.191,874.069 2060.647,890.612 2042.392,861.761 2061.873,878.146 		"/>
		<polygon style="fill:#FFFFFF;" points="2068.191,762.442 2060.647,778.984 2042.392,750.134 2061.873,766.519 		"/>
		<path style="fill:#D6716B;" d="M1941.093,686.87h366.812c2.46,0,4.455-1.994,4.455-4.455v0c0-2.46-1.994-4.455-4.455-4.455
			h-366.812c-2.46,0-4.454,1.994-4.454,4.455v0C1936.639,684.876,1938.633,686.87,1941.093,686.87z"/>
	</g>
	<rect x="1073.478" y="599.392" style="fill:#DEEDFF;" width="607.653" height="1058.287"/>
	<rect x="1116.89" y="644.543" style="fill:#B2CBFD;" width="520.83" height="1013.136"/>
	<g>
		<path style="fill:#A8D29F;" d="M1874.621,1455.322h751.13c5.04,0,9.163-4.123,9.163-9.163v-269.614h-718.424
			c-28.068,0-51.032,22.964-51.032,51.032v218.581C1865.458,1451.199,1869.582,1455.322,1874.621,1455.322z"/>
		<path style="fill:#A8D29F;" d="M1822.038,1438.07h761.509c27.666,0,50.302,22.636,50.302,50.302v117.237
			c0,27.666-22.636,50.302-50.302,50.302h-761.509c-27.666,0-50.302-22.636-50.302-50.302v-117.237
			C1771.736,1460.705,1794.372,1438.07,1822.038,1438.07z"/>
		<path style="fill:#66A357;" d="M2529.678,1442.05h59.001v-225.093c0-22.226,18.185-40.411,40.412-40.411h5.59
			c1.361,0,2.474,1.114,2.474,2.475v266.895v50.917v155.213c0,2.126-1.739,3.865-3.865,3.865h-170.788
			c-2.126,0-3.866-1.74-3.866-3.865v-138.954C2458.637,1474.018,2490.606,1442.05,2529.678,1442.05z"/>
		<path style="fill:#82B378;" d="M2458.996,1178.455c0,0,56.315-5.401,75.837,27.002c19.522,32.403,0,154.299,16.519,175.901
			c16.519,21.602,36.042,34.717,35.291,60.176l-121.104,1.296c0,0-106.467,3.832-105.695,60.557c0.772,56.724,0,154.841,0,154.841
			h-60.948c0,0-2.741-251.799,58.942-266.589C2493.096,1359.208,2458.996,1178.455,2458.996,1178.455z"/>
		<path style="fill:#82B378;" d="M1862.164,1429.098l3.294,0.118V1218.46c0-23.124,18.745-41.869,41.869-41.869h129.18
			c0,0,26.615,87.993,30.087,117.706c3.472,29.712,105.304,30.855,119.19,67.423c13.886,36.568,16.2,77.708,16.2,77.708h-51.682
			c0,0-2.022,0.677-5.475,2.177c-20.349,8.839-90.403,46.28-89.414,142.441v71.161h-255.738
			C1799.676,1655.208,1759.175,1446.315,1862.164,1429.098z"/>
		<path style="fill:#E49963;" d="M2299.213,1338.849c0,0-10.635-3.235-14.36-1.317c-3.726,1.919-13.732,7.915-12.879,12.479
			c0.853,4.563,18.563,7.379,29.199,0.292C2311.81,1343.217,2299.213,1338.849,2299.213,1338.849z"/>
		<path style="fill:#D38957;" d="M2334.653,1641.446c-0.008,2.994-1.481,5.053-3.989,6.434c-0.008,0.008-0.023,0.015-0.039,0.015
			c-4.637,2.554-12.039,0.594-20.896,0.208c-1.134-0.047-12.895,4.992-29.552,6.419c-18.986,1.62-25.984-4.19-27.103-6.836
			c-0.941-2.245,7.206-4.791,16.31-7.699c0.44-0.139,0.879-0.286,1.327-0.425c1.211-0.385,2.43-0.787,3.642-1.18
			c10.839-3.603,21.509-7.877,24.171-18.847c2.824-11.635-5.663-44.106-5.663-44.106l30.088-3.248c0,0,2.901,33.946,4.791,44.523
			c1.018,5.648,3.58,10.137,5.076,14.975c0.108,0.339,0.208,0.679,0.301,1.018
			C2333.889,1635.536,2334.66,1638.445,2334.653,1641.446z"/>
		<g>
			<path style="fill:#2F5791;" d="M2334.653,1641.446c-0.008,2.994-1.481,5.053-3.989,6.434c-0.008,0.008-0.023,0.015-0.039,0.015
				c-6.72,4.323-18.658-1.69-38.094,7.28c-0.836,0.386-7.36-0.065-11.894-0.128c-5.895-0.083-14.401,0.45-16.394,0.128
				c-9.178-1.48-10.54-6.001-11.169-7.488c-0.941-2.245,7.206-4.791,16.31-7.699c2.554,0.987,14.728,5.215,29.132,2.484
				c12.668-2.384,25.251-8.687,34.301-10.793c0.108,0.339,0.208,0.679,0.301,1.018
				C2333.889,1635.536,2334.66,1638.445,2334.653,1641.446z"/>
			<polygon style="fill:#2F5791;" points="2331.621,1646.738 2327.185,1655.032 2317.541,1655.032 2317.541,1648.956 			"/>
		</g>
		<path style="fill:#2C3A64;" d="M2490.113,1352.067l-97.403-9.283c0,0-149.078,0.673-162.964,20.353c0,0-26.615,18.45,3.471,94.708
			c30.087,76.26,65.422,152.473,65.422,152.473s9.001,2.46,21.345,1.503c4.875-0.378,11.444-2.05,11.444-2.05
			s-6.792-113.797-21.836-158.076c-15.043-44.279-19.672-35.669,6.943-33.209c26.615,2.46,112.247,22.14,151.591,17.22
			C2507.471,1430.786,2490.113,1352.067,2490.113,1352.067z"/>
		<path style="fill:#E49963;" d="M2353.426,1641.446c-0.008,2.994-1.481,5.053-3.989,6.434c-0.008,0.008-0.023,0.015-0.039,0.015
			c-4.637,2.554-12.239-3.038-46.89,5.165c-18.543,4.39-29.542-2.727-30.661-5.373c-0.941-2.245,7.206-4.791,16.31-7.699
			c0.439-0.139,0.879-0.286,1.327-0.425c1.211-0.385,2.43-0.787,3.641-1.18c10.84-3.603,21.509-7.877,24.171-18.847
			c2.824-11.635-5.663-44.106-5.663-44.106l30.088-3.248c0,0,2.901,33.946,4.791,44.523c1.018,5.648,3.58,10.137,5.076,14.975
			c0.108,0.339,0.208,0.679,0.301,1.018C2352.662,1635.536,2353.434,1638.445,2353.426,1641.446z"/>
		<g>
			<path style="fill:#E49963;" d="M2020.631,1641.446c-0.008,2.994-1.481,5.053-3.989,6.434c-0.008,0.008-0.023,0.015-0.039,0.015
				c-4.637,2.554-12.776,2.809-21.633,2.423c-1.134-0.046-2.152-0.077-3.063-0.077c-0.239,0-0.478,0-0.71,0.008
				c-0.185,0-0.37,0.008-0.547,0.008c-8.764,0.216-7.839,2.839-24.495,4.267c-18.986,1.62-25.984-4.19-27.103-6.836
				c-0.941-2.245,7.206-4.791,16.31-7.699c0.44-0.139,0.879-0.286,1.327-0.425c1.211-0.385,2.43-0.787,3.641-1.18
				c10.84-3.603,21.51-7.877,24.171-18.847c2.823-11.635-5.663-44.106-5.663-44.106l30.088-3.248c0,0,2.901,33.946,4.791,44.523
				c1.018,5.648,3.58,10.137,5.076,14.975c0.108,0.339,0.208,0.679,0.301,1.018
				C2019.867,1635.536,2020.639,1638.445,2020.631,1641.446z"/>
			<path style="fill:#C65447;" d="M2020.631,1641.446c-0.008,2.994-1.481,5.053-3.989,6.434c-0.008,0.008-0.023,0.015-0.039,0.015
				c-4.938,2.284-12.946,2.616-21.617,2.369c-1.134-0.031-2.153-0.039-3.078-0.024c-0.239,0-0.478,0-0.71,0.008
				c-0.185,0-0.37,0.008-0.547,0.008c-8.764,0.216-7.839,2.839-24.495,4.267c-18.986,1.62-25.984-4.19-27.103-6.836
				c-0.941-2.245,7.206-4.791,16.31-7.699c2.554,0.987,14.728,5.215,29.132,2.484c12.668-2.384,25.251-8.687,34.301-10.793
				c0.108,0.339,0.208,0.679,0.301,1.018C2019.867,1635.536,2020.639,1638.445,2020.631,1641.446z"/>
			<path style="fill:#E49963;" d="M1825.391,1603.04c-1.672,8.356-13.583,6.962-26.89,3.71c-13.308-3.251-10.144,0.614-29.084-1.482
				c-18.939-2.096-24.677-9.158-25.254-11.974c-0.517-2.499,8.841-3.381,18.879-4.537c1.262-0.141,2.53-0.298,3.798-0.454
				c11.333-1.422,19.632-8.735,29.926-14.74c9.751-5.689,24.302-28.867,24.302-28.867l25.974,2.057c0,0-13.63,20.702-18.902,29.703
				c-3.101,5.294-2.936,12.294-2.549,17.7C1825.792,1597.093,1825.983,1600.097,1825.391,1603.04z"/>
			<path style="fill:#C65447;" d="M1798.501,1606.75c-13.308-3.251-10.144,0.614-29.084-1.482
				c-18.939-2.096-24.677-9.158-25.254-11.974c-0.517-2.499,8.841-3.381,18.879-4.537l0.094,0.193c0,0,11.358,8.053,27.123,8.431
				c12.849,0.312,26.459-3.369,35.332-3.226c0.201,2.939,0.392,5.942-0.2,8.885
				C1823.719,1611.396,1811.808,1610.002,1798.501,1606.75z"/>
			<path style="fill:#E49963;" d="M1883.184,1221.55c0,0-6.188-15.161-12.996-15.78c-6.807-0.619-28.467-4.023-30.014-0.929
				c-1.547,3.095,0,14.234,4.641,18.256c4.641,4.022,33.417,10.52,33.417,10.52L1883.184,1221.55z"/>
			<path style="fill:#365DA4;" d="M1924.928,1436.958l55.979,150.647c0,0,8.599,0.833,16.844-1.543
				c7.587-2.186,16.281-7.928,16.281-7.928s-13.886-144.648-39.344-174.735C1949.23,1373.312,1924.928,1436.958,1924.928,1436.958z"
				/>
			<path style="fill:#466AA5;" d="M2164.258,1368.841c-11.469,4.59-24.174,5.046-35.941,1.286
				c-43.015-13.744-150.228-46.116-178.702-36.931c-35.873,11.572-143.581,225.864-143.581,225.864s2.429,3.233,9.065,5.722
				c6.172,2.314,21.111,2.166,21.111,2.166s97.203-83.318,108.775-107.619c11.572-24.301,16.201-47.444,27.772-45.13
				c11.572,2.314,149.277,56.702,180.521,24.301c31.244-32.401,23.073-74.499,23.073-74.499L2164.258,1368.841z"/>
			<path style="fill:#B74B42;" d="M2048.042,1122.995c-2.568-5.304-5.44-14.723-6.846-31.515
				c0.217,1.667,3.111,22.845,11.254,34.834c33.452,21.962,97.569,95.295,96.3,109.192c0,0,22.585-38.306,22.974-38.534
				c0,0,41.661-52.976-7.715-83.322c-25.094-15.423-24.967-35.216-23.919-52.411c1.057-17.197-6.845-91.215-57.114-71.844
				c0,0-8.066-3.585-11.68-3.047c0,0,2.951,0.564,4.452,2.113c-5.828-0.344-14.16,0.087-21.113,4.039
				C2036.206,1002.971,2019.715,1096.924,2048.042,1122.995z"/>
			<path style="fill:#E49963;" d="M2054.43,1127.406c-0.167,0.075,16.152,8.549,28.427,5.191
				c11.546-3.148,19.09-18.119,18.931-18.152c-4.89-0.971-6.3-7.691-6.196-36.565l-2.211,0.436l-37.168,7.36
				c0,0,0.846,11.697,0.871,22.716C2057.109,1117.644,2056.548,1126.418,2054.43,1127.406z"/>
			<path style="fill:#D68D5D;" d="M2056.213,1085.675c0,0,0.846,11.697,0.871,22.716c20.799-0.587,31.792-19.559,36.297-30.076
				L2056.213,1085.675z"/>
			<path style="fill:#B74B42;" d="M2097.22,1074.269c0,0,10.899-17.222,13.515-31.948c1.868-10.513-3.487-49.484-42.648-43.871
				c0,0-11.374,1.121-22.065,8.342c-8.502,5.742-20.773,18.14-7.053,52.147l3.564,11.487L2097.22,1074.269z"/>
			<path style="fill:#E49963;" d="M2049.268,1096.109c0,0,49.209,0.812,49.243-29.841c0.034-30.652,6.408-51.192-25.01-53.006
				c-31.417-1.815-37.535,9.875-40.034,20.104C2030.967,1043.594,2036.468,1095.108,2049.268,1096.109z"/>
			<path style="fill:#B74B42;" d="M2095.734,1018.974c0,0-33.609-22.98-44.244-7.091c-3.224-2.764-8.966-4.764-16.56,4.439
				c-11.408,13.827-1.257,38.27-1.257,38.27c4.684,0.546,5.787-15.522,8.24-23.328c1.85-5.887,8.026-11.898,10.951-14.499
				c4.293,9.678,16.102,32.839,32.375,37.024c20.677,5.317,29.646-0.223,29.646-0.223S2099.025,1040.967,2095.734,1018.974z"/>
			<path style="fill:#699DEE;" d="M2164.009,1259.794c4.853-20.352-11.657-59.845-28.892-92.541
				c-15.638-29.633-31.871-53.673-33.329-52.809c-41.244,24.48-44.97,4.128-44.97,4.128s-37.464,4.976-48.072,23.237
				c-14.674,25.251-30.651,101.027-46.352,99.909c-7.206-0.517-79.726-27.774-79.726-27.774s-12.082,11.318-9.767,25.205
				c0,0,35.805,23.979,66.086,39.277c16.016,8.093,30.49,13.756,37.294,12.151c13.794-3.248,35.342-35.226,46.984-54.051
				c0.027-0.043,0.051-0.083,0.077-0.126c14.861,84.115-5.345,103.27,4.883,112.139c10.801,9.366,26.231-4.459,60.177,10.253
				c22.265,9.66,53.164,23.624,73.963,26.054c10.909,1.28,19.049-0.617,21.702-7.985
				C2191.782,1355.452,2154.751,1298.593,2164.009,1259.794z"/>
			<path style="fill:#FFFFFF;" d="M2060.207,1077.528c0,0-0.917,3.894-10.604,3.293c0,0-8.134-0.503-7.885-4.782
				C2041.718,1076.039,2049.604,1072.994,2060.207,1077.528z"/>
			<path style="fill:#3B76CA;" d="M2184.067,1376.861c-2.654,7.368-10.793,9.265-21.702,7.985
				c-14.396-6.272-76.586-30.366-75.892-46.691c1.034-24.171,11.958-24.942,4.243-54.776c-6.195-23.955,51.269-68.495,60.434-78.178
				c17.235,32.696,17.711,34.242,12.858,54.594C2154.751,1298.593,2191.782,1355.452,2184.067,1376.861z"/>
			<path style="fill:#3B76CA;" d="M2023.265,1236.526c-11.642,18.824-33.19,50.803-46.984,54.051
				c-6.804,1.605-21.278-4.058-37.294-12.151c11.688,3.016,23.045,2.932,34.077,1.867c11.958-1.157,15.43-15.816,34.332-37.803
				C2019.654,1228.232,2022.663,1231.82,2023.265,1236.526z"/>
			<path style="fill:#E49963;" d="M2080.88,1282.8c0,0-10.415-8.101-20.252-6.172c-9.836,1.929-14.658,8.679-14.273,11.766
				c0.386,3.086,5.593,11.765,13.115,12.536c7.522,0.771,28.931-4.629,28.931-4.629L2080.88,1282.8z"/>
			<path style="fill:#699DEE;" d="M2101.788,1114.445c0,0,40.107,2.47,53.991,21.836c19.544,27.259,66.453,148.513,44.232,164.007
				c-25.024,17.448-122.025-0.515-122.025-0.515s-2.957-13.823,1.157-20.509c4.115-6.686,70.977-17.487,74.063-20.573
				c3.086-3.086-38.575-60.177-38.575-69.434C2114.633,1179.998,2101.788,1114.445,2101.788,1114.445z"/>
		</g>
		<path style="fill:#35488B;" d="M2503.729,1358.985l-91.347-7.715c0,0-149.078,0.652-162.964,19.712c0,0-22.527,14.111,7.56,87.967
			c30.087,73.855,60.563,155.13,60.563,155.13s6.75,0.927,14.916,0.265c10.271-0.833,13.694-4.169,13.694-4.169
			s-2.122-101.062-17.166-143.946c-15.043-42.884-20.829-38.518,5.786-36.135c26.615,2.382,101.451,21.046,153.027,11.171
			C2526.746,1433.806,2503.729,1358.985,2503.729,1358.985z"/>
		<g>
			<path style="fill:#365DA4;" d="M2271.851,1647.689c0.607,1.429,1.898,5.708,10.26,7.326h29.549
				c10.183-4.625,18.284-5.147,24.65-5.251c5.662-0.085,9.941,0.156,13.085-1.866c0.02,0,0.033-0.013,0.039-0.019
				c0.15-0.085,0.3-0.17,0.444-0.261c2.244-1.376,3.542-3.359,3.549-6.171c0.006-3.001-0.763-5.91-1.539-8.747
				c-0.091-0.34-0.189-0.685-0.3-1.024c-9.048,2.107-21.63,8.415-34.298,10.795c-14.403,2.733-26.581-1.493-29.132-2.485
				C2279.052,1642.895,2270.905,1645.44,2271.851,1647.689z"/>
			<polygon style="fill:#365DA4;" points="2350.394,1646.749 2345.958,1655.042 2336.314,1655.042 2336.314,1648.966 			"/>
		</g>
		<path style="fill:#EE9849;" d="M2332.821,1291.253c6.565-9.309,6.957-126.685,10.814-144.429
			c3.857-17.745,37.163-28.252,37.163-28.252s-6.172,59.806-13.385,114.197c-5.833,43.998-6.526,85.906-11.009,88.321
			c-10.029,5.4-38.892,27.236-51.942,25.376l-7.887-7.005c-1.481-1.315-1.137-3.68,0.627-4.579
			C2311.211,1327.753,2327.936,1298.18,2332.821,1291.253z"/>
		<path style="fill:#163560;" d="M2378.615,992.5c6.235-5.008,15.285-4.383,21.113-4.039c-1.501-1.549-4.452-2.113-4.452-2.113
			c3.614-0.537,11.68,3.047,11.68,3.047s30.553-15.643,44.697,24.475c0,0-2.433-3.027-5.782-6.465
			c8.176,23.077-0.091,57.989-25.849,64.199C2403.275,1075.641,2314.712,1043.829,2378.615,992.5z"/>
		<path style="fill:#E49963;" d="M2378.41,1127.406c-0.167,0.075,16.151,8.549,28.427,5.191
			c11.546-3.148,19.09-18.119,18.931-18.152c-4.89-0.971-6.3-7.691-6.196-36.565l-2.21,0.436l-37.168,7.36
			c0,0,0.845,11.697,0.871,22.716C2381.089,1117.644,2380.528,1126.418,2378.41,1127.406z"/>
		<path style="fill:#D68D5D;" d="M2380.193,1085.675c0,0,0.845,11.697,0.871,22.716c20.799-0.587,31.792-19.559,36.297-30.076
			L2380.193,1085.675z"/>
		<path style="fill:#163560;" d="M2421.2,1074.269c0,0,10.9-17.222,13.516-31.948c1.867-10.513-3.487-49.484-42.648-43.871
			c0,0-11.374,1.121-22.065,8.342c-8.502,5.742-20.773,18.14-7.053,52.147l3.564,11.487L2421.2,1074.269z"/>
		<path style="fill:#E49963;" d="M2373.248,1096.109c0,0,49.209,0.812,49.243-29.841c0.034-30.652,6.408-51.192-25.009-53.006
			c-31.417-1.815-37.535,9.875-40.035,20.104C2354.947,1043.594,2360.448,1095.108,2373.248,1096.109z"/>
		<path style="fill:#E58638;" d="M2361.211,1163.975c0.861-3.492-6.506-6.118-8.311-3.007c-3.381,5.829-4.049,13.175-5.4,19.03
			c-3.857,16.716,0,39.604,0,39.604L2361.211,1163.975z"/>
		<path style="fill:#163560;" d="M2358.91,1016.323c7.593-9.204,13.336-7.204,16.56-4.439c10.634-15.889,44.244,7.091,44.244,7.091
			c3.292,21.994,19.152,34.593,19.152,34.593s-8.969,5.54-29.646,0.223c-16.273-4.184-28.082-27.346-32.375-37.024
			c-2.925,2.601-9.101,8.612-10.951,14.499c-2.453,7.806-3.557,23.874-8.24,23.328
			C2357.653,1054.593,2347.502,1030.15,2358.91,1016.323z"/>
		<path style="fill:#FFFFFF;" d="M2384.187,1077.528c0,0-0.917,3.894-10.604,3.293c0,0-8.133-0.503-7.885-4.782
			C2365.698,1076.039,2373.584,1072.994,2384.187,1077.528z"/>
		<path style="fill:#E58638;" d="M2345.378,1225.997c0,0,6.241,89.305-12.035,109.455l37.476-23.654L2345.378,1225.997z"/>
		<path style="fill:#EE9849;" d="M2344.492,1221.66c19.943,96.143,3.256,110.902,13.617,120.353c0.054,0.047,9.196,3.996,9.258,4.05
			c10.801,9.366,11.071-1.982,45.017,12.73c16.17,7.013,36.901,16.301,55.007,21.794c6.82,2.06,13.262,3.595,18.956,4.259
			c10.909,1.28,19.049-0.617,21.703-7.985c7.715-21.409-29.317-78.268-20.059-117.067c0.077-0.332,0.154-0.671,0.224-1.003
			c0.671-3.395,0.795-7.291,0.448-11.564c-1.728-21.648-15.399-53.11-29.563-79.973c-15.638-29.633-31.87-53.673-33.329-52.809
			c-41.244,24.48-44.971,4.128-44.971,4.128S2337.687,1188.871,2344.492,1221.66z"/>
		<path style="fill:#E58638;" d="M2364.088,1344.713C2364.142,1344.759,2364.026,1344.659,2364.088,1344.713
			c10.801,9.366,14.35-0.633,48.296,14.08c16.17,7.013,36.901,16.301,55.007,21.794c9.25,1.613,16.14,3.032,18.956,4.259
			c10.909,1.28,19.049-0.617,21.703-7.985c7.715-21.409-29.317-78.268-20.059-117.067c0.077-0.332,0.154-0.671,0.224-1.003
			c0.795-3.834,0.903-7.661,0.448-11.564c-1.952-16.448-14.049-34.293-27.75-60.285c-9.166,9.683-77.998-1.543-61.72,94.123
			C2404.183,1310.389,2368.37,1321.954,2364.088,1344.713z"/>
		<path style="fill:#E49963;" d="M2367.431,1349.599c0,0-15.173-3.6-22.116-0.771c-6.943,2.829-20.83,10.029-19.544,13.887
			c1.286,3.858,17.744,5.915,24.688,2.058c6.944-3.858,12.087,1.029,20.573-1.8
			C2379.518,1360.143,2367.431,1349.599,2367.431,1349.599z"/>
		<path style="fill:#EE9849;" d="M2425.768,1114.444c0,0,55.965,0.748,65.995,27.751c10.029,27.002,6.943,121.896-7.715,150.442
			c-14.658,28.545-97.98,67.12-107.238,68.663c-9.258,1.543-15.044-12.73-14.658-14.273s87.565-72.135,87.179-79.464
			C2448.944,1260.234,2425.768,1114.444,2425.768,1114.444z"/>
	</g>
	<g>
		<g>
			<path style="fill:#82B378;" d="M932.204,1094.377c0,0,11.431-13.336,0.705-21.807c0,0-7.835-4.743-14.223-4.358
				c0,0,9.052,15.179,6.124,16.689c-2.929,1.51-8.868-17.641-8.868-17.641s-17.83-1.729-23.565,1.028
				c0,0,15.242,12.473,12.032,13.216c-3.21,0.743-19.674-11.5-19.674-11.5s-16.594,2.824-15.709,12.947
				c0.885,10.123,6.602,13.249,9.116,12.98c2.513-0.269,17.214-5.881,17.534-3.822c0.32,2.059-8.529,8.789-14.726,9.103
				c0,0,11.7,12.902,19.475,9.179c7.775-3.724,8.439-9.626,13.286-11.84c4.847-2.214,8.984-2.208,6.983,0.049
				c-2.001,2.258-10.773,4.452-13.545,9.355c-2.772,4.903-5.259,8.21,2.786,7c8.045-1.211,21.121-7.097,21.695-13.837
				C932.204,1094.377,932.204,1094.377,932.204,1094.377z"/>
			<g>
				<path style="fill:#82B378;" d="M877.179,1083.224c0,0,45.071-1.737,55.025,11.153c0,0,2.201,6.593,8.975,12.596l1.056,2.877
					c0,0-7.81-8.235-10.605-8.733C931.63,1101.118,936,1085.149,877.179,1083.224z"/>
				<path style="fill:#82B378;" d="M941.179,1106.973c0,0,9.674,7.155,10.346,19.938l-1.756,0.157c0,0-3.09-13.218-8.675-18.387
					C935.51,1103.512,941.179,1106.973,941.179,1106.973z"/>
			</g>
		</g>
		<g>
			<path style="fill:#A8D29F;" d="M972.171,1077.606c0,0-18.184-10.183-9.698-24.003c0,0,6.789-8.486,14.062-10.668
				c0,0-3.879,20.608,0,21.093c3.879,0.485,2.667-23.276,2.667-23.276s19.154-9.213,26.67-8.486c0,0-11.88,20.124-8.001,19.639
				c3.879-0.485,17.214-20.851,17.214-20.851s19.639-3.637,22.791,8.001c3.152,11.638-1.939,17.457-4.849,18.184
				c-2.91,0.727-21.578,0.485-21.094,2.909c0.485,2.425,13.093,6.304,20.124,4.122c0,0-7.758,19.154-17.941,18.184
				c-10.183-0.97-13.335-7.274-19.639-7.759c-6.304-0.485-10.91,1.212-7.758,2.909c3.152,1.697,13.82,0.556,18.911,4.885
				c5.091,4.328,9.213,6.995-0.242,8.935c-9.456,1.94-26.428,0.727-29.822-6.546
				C972.171,1077.606,972.171,1077.606,972.171,1077.606z"/>
			<g>
				<path style="fill:#82B378;" d="M1028.905,1042.692c0,0-50.915,16.487-56.734,34.913c0,0,0.243,8.244-4.849,17.699v3.637
					c0,0,5.334-12.365,8.243-14.062C975.565,1084.879,964.17,1068.877,1028.905,1042.692z"/>
				<path style="fill:#82B378;" d="M967.322,1095.305c0,0-7.852,11.924-3.376,26.438l2.02-0.543c0,0-1.961-15.987,2.147-24.027
					C972.222,1089.133,967.322,1095.305,967.322,1095.305z"/>
			</g>
		</g>
		<g>
			<path style="fill:#A8D29F;" d="M943.242,1063.562c0,0,23.97-13.423,12.784-31.64c0,0-8.949-11.186-18.537-14.062
				c0,0,5.114,27.166,0,27.805c-5.114,0.639-3.516-30.682-3.516-30.682s-25.248-12.144-35.156-11.186
				c0,0,15.66,26.527,10.547,25.888c-5.114-0.639-22.692-27.485-22.692-27.485s-25.887-4.794-30.042,10.547
				c-4.155,15.341,2.557,23.011,6.392,23.97c3.835,0.959,28.444,0.639,27.805,3.835c-0.639,3.196-17.258,8.31-26.526,5.433
				c0,0,10.227,25.248,23.65,23.97c13.423-1.278,17.578-9.588,25.887-10.227c8.31-0.639,14.382,1.598,10.227,3.835
				c-4.155,2.237-18.217,0.733-24.929,6.439c-6.712,5.706-12.145,9.221,0.32,11.778c12.464,2.557,34.836,0.959,39.311-8.629
				C943.242,1063.562,943.242,1063.562,943.242,1063.562z"/>
			<g>
				<path style="fill:#82B378;" d="M868.456,1017.54c0,0,67.116,21.733,74.786,46.022c0,0-0.32,10.866,6.392,23.33v4.794
					c0,0-7.031-16.299-10.866-18.537C938.768,1073.15,953.788,1052.056,868.456,1017.54z"/>
				<path style="fill:#82B378;" d="M949.634,1086.892c0,0,10.35,15.718,4.45,34.85l-2.663-0.715c0,0,2.585-21.073-2.83-31.672
					C943.175,1078.756,949.634,1086.892,949.634,1086.892z"/>
			</g>
		</g>
		<path style="fill:#F1A34F;" d="M944.049,1163.232c-25.932,0-46.953-21.021-46.953-46.953h93.906
			C991.003,1142.211,969.981,1163.232,944.049,1163.232z"/>
		<path style="fill:#FFB973;" d="M932.495,1162.873c1.91,0.239,3.857,0.359,5.834,0.359c25.931,0,46.951-21.022,46.951-46.953
			h-11.665C973.615,1140.236,955.675,1160.001,932.495,1162.873z"/>
		<path style="fill:#F1A34F;" d="M896.448,1165.622h95.203l0,0c0-3.199-2.593-5.793-5.793-5.793h-83.618
			C899.041,1159.829,896.448,1162.422,896.448,1165.622L896.448,1165.622z"/>
		
			<rect x="896.029" y="1116.279" transform="matrix(-1 -1.224647e-16 1.224647e-16 -1 1888.5752 2233.9988)" style="fill:#D86713;" width="96.518" height="1.441"/>
	</g>
	<g>
		<g>
			<path style="fill:#FFB27D;" d="M772.898,1153.637c0,0,10.967-3.646,16.264-2.55c5.297,1.096,21.736,8.767,22.101,10.411
				c0.365,1.645,0,2.828,0,2.828h-38.366c0,0-8.577-1.667-10.038-6.722C761.399,1152.549,772.898,1153.637,772.898,1153.637z"/>
			<path style="fill:#AD7041;" d="M629.755,1637.057c0.293,3.141,2.036,5.163,4.799,6.374c0.009,0.007,0.026,0.014,0.042,0.012
				c5.11,2.239,13.677,1.732,22.937,0.484c1.186-0.156,2.252-0.286,3.207-0.372c0.251-0.023,0.502-0.046,0.746-0.06
				c0.194-0.018,0.39-0.027,0.576-0.044c9.22-0.607,8.498,2.234,26.116,2.147c20.083-0.107,26.875-6.87,27.797-9.755
				c0.774-2.446-8.019-4.343-17.852-6.529c-0.475-0.104-0.95-0.216-1.433-0.319c-1.308-0.29-2.625-0.595-3.934-0.892
				c-11.72-2.75-23.326-6.22-27.164-17.483c-4.071-11.942-3.107-47.379-3.107-47.379h-35.568c0,0,9.336,39.151,8.359,50.432
				c-0.531,6.024-3.413,7.737-4.523,12.957c-0.081,0.366-0.154,0.732-0.219,1.097
				C629.995,1630.781,629.462,1633.908,629.755,1637.057z"/>
			<g>
				<path style="fill:#415DA5;" d="M588.368,1254.034c3.002,16.852,7.284,34.266,11.005,52.376
					c5.975,29.123,10.485,60.06,5.869,93.372c-0.591,4.29-0.911,9.02-0.982,14.106c-0.897,58.878,25.412,165.58,25.412,165.58
					s7.146,3.082,19.12,2.49c6.165-0.305,15.627-4.281,15.627-4.281s2.49-66.155,2.639-155.124
					c0.108-64.49,12.771-149.402,15.329-199.3c1.548-30.196-1.813-70.424-1.813-70.424s-52.441-42.168-71.277-20.593
					C590.687,1153.556,577.136,1190.994,588.368,1254.034z"/>
			</g>
			<path style="fill:#355493;" d="M605.241,1399.783c-0.591,4.29-0.911,9.02-0.982,14.106
				c39.273-56.901,47.959-180.982,47.959-180.982l-43.136,20.935c0,0-4.73,23.269-9.71,52.569
				C605.348,1335.533,609.858,1366.47,605.241,1399.783z"/>
			<path style="fill:#AD7041;" d="M516.295,1637.057c0.293,3.141,2.036,5.163,4.799,6.374c0.009,0.007,0.026,0.014,0.042,0.012
				c5.11,2.239,13.677,1.732,22.937,0.484c1.186-0.156,2.252-0.286,3.208-0.372c0.251-0.023,0.502-0.046,0.746-0.06
				c0.194-0.018,0.389-0.027,0.576-0.044c9.22-0.607,8.497,2.234,26.116,2.147c20.083-0.107,26.875-6.87,27.797-9.755
				c0.775-2.446-8.019-4.343-17.851-6.529c-0.475-0.104-0.95-0.216-1.433-0.319c-1.308-0.29-2.626-0.595-3.934-0.892
				c-11.721-2.75-23.326-6.22-27.165-17.483c-4.071-11.942,1.746-46.834,1.746-46.834l-32.951-2.753c0,0,2.044,39.757,1.067,51.039
				c-0.531,6.025-3.59,9.338-4.701,14.558c-0.081,0.366-0.154,0.732-0.219,1.097
				C516.534,1630.781,516.001,1633.908,516.295,1637.057z"/>
			<path style="fill:#415DA5;" d="M520.94,1582.481c0,0,8.471,4.009,14.569,5.228c6.098,1.22,18.768-1.163,18.768-1.163
				c2.284-25.621,7.594-65.682,17.912-110.89c11.749-51.469,29.231-112.289,53.606-169.885c5.206-12.3,26.674-70.524,30.317-85.216
				c11.017-44.395-0.044-39.613-0.044-39.613l-96.289-11.3c0,0-11.863,6.098-17.327,68.788
				c-1.634,18.774-1.835,99.838-4.299,115.206c-2.333,14.554-5.065,26.653-8.269,34.516
				C511.996,1432.058,520.94,1582.481,520.94,1582.481z"/>
			<path style="fill:#B84C42;" d="M516.295,1637.057c0.293,3.141,2.036,5.163,4.799,6.374c0.009,0.007,0.026,0.014,0.042,0.012
				c5.4,1.927,13.837,1.513,22.916,0.429c1.187-0.14,2.255-0.246,3.229-0.317c0.251-0.023,0.502-0.046,0.746-0.06
				c0.194-0.018,0.389-0.027,0.576-0.044c9.22-0.607,8.497,2.234,26.116,2.147c20.083-0.107,26.875-6.87,27.797-9.755
				c0.775-2.446-8.019-4.343-17.851-6.529c-2.586,1.28-14.962,6.876-30.341,5.38c-13.523-1.297-27.331-6.714-37.03-8.064
				c-0.081,0.366-0.154,0.732-0.219,1.097C516.534,1630.781,516.001,1633.908,516.295,1637.057z"/>
			<path style="fill:#B84C42;" d="M629.755,1637.057c0.293,3.141,2.036,5.163,4.799,6.374c0.009,0.007,0.026,0.014,0.042,0.012
				c5.4,1.927,13.837,1.513,22.915,0.429c1.187-0.14,2.256-0.246,3.229-0.317c0.251-0.023,0.502-0.046,0.746-0.06
				c0.194-0.018,0.39-0.027,0.576-0.044c9.22-0.607,8.498,2.234,26.116,2.147c20.083-0.107,26.875-6.87,27.797-9.755
				c0.774-2.446-8.019-4.343-17.852-6.529c-2.586,1.28-14.962,6.876-30.341,5.38c-13.523-1.297-27.331-6.714-37.029-8.064
				c-0.081,0.366-0.154,0.732-0.219,1.097C629.995,1630.781,629.462,1633.908,629.755,1637.057z"/>
			<path style="fill:#2B478B;" d="M668.275,881.321c3.252-26.561-5.043-69.064-58.057-62.273
				c-53.014,6.792-69.721,58.892-59.029,82.058c10.692,23.166-15.391,28.752-23.58,53.664c-7.034,21.401-9.486,47.973-20.869,59.898
				c-36.7,38.448,35.234,97.572,78.599,85.104c78.987-22.709,89.162-26.098,86.357-88.16c-1.437-31.798-26.176-44.119-10.469-53.319
				C699.173,936.07,660.916,941.424,668.275,881.321z"/>
			<path style="fill:#FFB27D;" d="M590.376,950.877l14.576,37.73l31.556,1.544l15.714-23.539
				c-17.827-13.516-17.072-39.38-16.198-48.415c0.199-2.034,0.398-3.215,0.398-3.215l-39.444-12.008
				c-0.477,10.428-1.06,18.581-1.686,24.961C593.086,950.344,590.376,950.877,590.376,950.877z"/>
			<path style="fill:#FFB27D;" d="M652.339,949.518c-2.028,0-36.455-7.006-94.596,7.867c0,0,31.841,145.885,21.025,173.381
				c-10.817,27.496-14.928,51.9-14.928,51.9l117.346,1.456c0,0-1.641-94.378,3.768-127.781
				C690.362,1022.939,652.339,949.518,652.339,949.518z"/>
			<path style="fill:#7A97F3;" d="M565.825,1112.243c-1.716,19.311-19.758,63.438-15.855,72.837
				c4.09,9.871,9.773,14.872,22.206,17.725c8.57,1.977,20.344,2.927,37.012,3.757c35.353,1.756,73.237-2.687,78.392-19.493
				c2.472-8.066,1.519-39.277,0.21-53.686c-2.707-29.816,2.968-72.601,3.797-100.287c0.683-23.092-13.245-75.642-13.245-75.642
				s-6.284-3.966-26.003-7.936c0,0-2.074,27.295-16.319,29.645c-24.629,4.065-44.477-18.498-50.274-27.58
				c0,0-28.288,7.139-36.589,16.603c-7.863,8.961,2.894,75.349,5.285,81.716c2.065,5.464,4.017,10.798,5.716,16.156
				C564.654,1080.199,567.403,1094.558,565.825,1112.243z"/>
			<path style="fill:#FFB27D;" d="M465.104,1153.731c0,0-10.967-3.614-16.264-2.527c-5.297,1.086-21.736,8.69-22.101,10.319
				c-0.365,1.63,0,2.803,0,2.803h38.365c0,0,8.577-1.652,10.039-6.663C476.604,1152.652,465.104,1153.731,465.104,1153.731z"/>
			<path style="fill:#E8945B;" d="M595.291,930.436c14.391-9.646,32.48-10.122,40.732-9.738c0.199-2.035,0.398-3.215,0.398-3.215
				l-39.444-12.007C596.5,915.903,595.917,924.055,595.291,930.436z"/>
			<path style="fill:#FFB27D;" d="M646.72,917.662c0,0-47.22,9.483-52.673-20.014c-5.453-29.497-15.22-48.139,14.698-55.441
				c29.918-7.302,37.873,2.868,42.088,12.271C655.048,863.881,658.862,914.435,646.72,917.662z"/>
			<path style="fill:#2B478B;" d="M584.904,844.163c7.991-8.99,19.518-10.739,27.921-10.594
				c-5.065-6.142,15.308-19.601,38.602,3.355c10.035,9.89,8.519,29.33,3.144,40.611c0,0-8.256-24.172-23.281-29.445
				c-3.345-1.174-6.519-3.129-9.435-5.456c-1.831,4.595-5.512,11.099-12.914,19.191c-15.53,16.977-12.503,51.308-12.503,51.308
				S570.941,859.871,584.904,844.163z"/>
			<path style="fill:#FFFFFF;" d="M632.008,903.149c0,0,1.263,3.501,10.153,1.912c0,0,7.464-1.333,6.777-5.262
				C648.938,899.799,641.324,897.827,632.008,903.149z"/>
			<path style="fill:#E9F2FF;" d="M502.455,1083.103c17.865-68.935,27.663-108.293,42.298-120.204
				c12.943-10.533,40.854-11.499,40.854-11.499c0.432,8.289,0.042,16.609-0.974,24.847l34.335,65.43
				c0,0,17.592,34.808,23.843,72.879c4.722-37.808,9.409-72.879,9.409-72.879s4.429-22.363,5.823-42.84
				c-4.138-15.964-3.706-32.631-5.648-49.32l2.16,0.124c6.781,0.474,27.918,2.629,38.694,11.476
				c14.636,12.016,17.919,64.783,42.298,121.267c0,0,29.54,49.669,38.944,69.374c0,0-1.762,2.69-5.285,4.723
				c-3.415,1.97-7.725,2.75-7.725,2.75s-53.289-52.475-56.79-60.772c-1.153-2.73-7.6-12.299-15.603-26.376v0
				c0,0-2.125,74.977,2.531,107.332c0.986,6.85-2.297,13.612-8.323,17.016c-32.911,18.589-131.504,69.228-149.851,20.047
				c-2.057-5.514,33.974-99.181,29.042-119.456c-1.578-6.486-3.661-21.277-5.763-38.39c-11.29,21.65-21.903,36.856-23.414,40.405
				c-3.502,8.224-56.79,60.239-56.79,60.239s-4.309-0.773-7.724-2.726c-3.524-2.015-5.285-4.682-5.285-4.682
				C472.914,1132.337,502.455,1083.103,502.455,1083.103z"/>
			<path style="fill:#B2CBFD;" d="M587.465,951.203l31.503,90.474l-31.499-29.783l2.382-9.259c0,0-7.24,0.645-10.178-1.253
				c-2.938-1.898-9.779-48.156-9.779-48.156s6.41-1.073,8.536-1.318C580.697,951.647,587.465,951.203,587.465,951.203z"/>
			<path style="fill:#B2CBFD;" d="M652.396,949.518c0,0,6.632,71.52-0.175,92.159c0,0,19.495-30.868,15.842-37.262l-7.065-4.657
				c0,0,13.641-1.771,11.083-9.607s-13.517-39.618-13.517-39.618L652.396,949.518z"/>
		</g>
		<g>
			<polygon style="fill:#699FF0;" points="1011.336,1657.288 260.138,1657.288 260.138,1410.592 1011.336,1408.131 			"/>
			<rect x="260.138" y="1210.827" style="fill:#699FF0;" width="751.198" height="64.515"/>
		</g>
		<path style="fill:#466AA5;" d="M242.948,1210.827h784.155c11.471,0,20.77-9.299,20.77-20.77v-4.961
			c0-11.47-9.299-20.769-20.77-20.769H242.948c-11.471,0-20.77,9.299-20.77,20.769v4.961
			C222.178,1201.527,231.477,1210.827,242.948,1210.827z"/>
		<g>
			<path style="fill:#2B478B;" d="M569.656,1039.947l21.662-1.333c1.458-0.09,2.568-1.345,2.478-2.803l-0.596-9.691
				c-0.09-1.458-1.345-2.567-2.803-2.478l-21.661,1.334c-1.458,0.09-2.568,1.345-2.478,2.803l0.596,9.69
				C566.943,1038.928,568.198,1040.037,569.656,1039.947z"/>
			
				<rect x="583.11" y="1026.522" transform="matrix(-0.9981 0.0615 -0.0615 -0.9981 1235.5684 2024.5128)" style="fill:#E9F2FF;" width="7.071" height="9.478"/>
			<path style="fill:#E9F2FF;" d="M570.526,1029.879l8.784-0.541c0.65-0.04,1.149-0.605,1.11-1.255l0,0
				c-0.04-0.65-0.605-1.15-1.255-1.11l-8.784,0.541c-0.65,0.04-1.149,0.605-1.109,1.255l0,0
				C569.311,1029.42,569.876,1029.919,570.526,1029.879z"/>
			<path style="fill:#E9F2FF;" d="M569.995,1033.19l10.248-0.631c0.248-0.015,0.438-0.231,0.422-0.478l0,0
				c-0.015-0.248-0.23-0.438-0.478-0.423l-10.248,0.631c-0.247,0.015-0.438,0.231-0.422,0.478l0,0
				C569.532,1033.015,569.747,1033.205,569.995,1033.19z"/>
			<path style="fill:#E9F2FF;" d="M570.086,1034.654l10.248-0.631c0.248-0.015,0.438-0.231,0.423-0.478l0,0
				c-0.015-0.248-0.23-0.438-0.478-0.422l-10.248,0.631c-0.248,0.015-0.438,0.231-0.423,0.478l0,0
				C569.622,1034.479,569.838,1034.669,570.086,1034.654z"/>
		</g>
		<path style="fill:#2B478B;" d="M638.491,1117.868c0-1.879-1.523-3.402-3.402-3.402c-1.879,0-3.402,1.522-3.402,3.402
			c0,1.879,1.523,3.402,3.402,3.402C636.968,1121.269,638.491,1119.746,638.491,1117.868z"/>
		<path style="fill:#2B478B;" d="M638.491,1139.215c0-1.879-1.523-3.402-3.402-3.402c-1.879,0-3.402,1.523-3.402,3.402
			c0,1.878,1.523,3.402,3.402,3.402C636.968,1142.617,638.491,1141.094,638.491,1139.215z"/>
		<polygon style="opacity:0.9;fill:#AFCDFB;" points="1001.362,1408.131 270.113,1410.592 270.113,1275.341 1001.362,1275.341 		"/>
		<g>
			<polygon style="fill:#699FF0;" points="334.159,1052.47 358.234,1164.327 264.404,1164.327 243.416,1052.47 			"/>
			<polygon style="fill:#FFFFFF;" points="330.933,1056.031 352.678,1157.063 267.929,1157.063 248.972,1056.031 			"/>
		</g>
		<g>
			<path style="fill:#699FF0;" d="M260.084,1064.144h64.507c1.188,0,2.161,0.972,2.161,2.161c0,1.188-0.973,2.16-2.161,2.16h-64.507
				c-1.189,0-2.161-0.972-2.161-2.16C257.923,1065.116,258.895,1064.144,260.084,1064.144z"/>
			<path style="fill:#699FF0;" d="M263.376,1074.329h64.507c1.189,0,2.161,0.972,2.161,2.16c0,1.188-0.972,2.161-2.161,2.161
				h-64.507c-1.188,0-2.161-0.972-2.161-2.161C261.215,1075.301,262.187,1074.329,263.376,1074.329z"/>
			<path style="fill:#699FF0;" d="M265.433,1084.103h64.507c1.189,0,2.161,0.972,2.161,2.161c0,1.188-0.972,2.161-2.161,2.161
				h-64.507c-1.188,0-2.161-0.972-2.161-2.161C263.273,1085.075,264.245,1084.103,265.433,1084.103z"/>
			<path style="fill:#699FF0;" d="M268.417,1104.255h64.507c1.189,0,2.161,0.972,2.161,2.161c0,1.188-0.972,2.161-2.161,2.161
				h-64.507c-1.189,0-2.161-0.972-2.161-2.161C266.256,1105.228,267.228,1104.255,268.417,1104.255z"/>
			<path style="fill:#699FF0;" d="M271.709,1114.441h64.507c1.189,0,2.161,0.972,2.161,2.161s-0.972,2.161-2.161,2.161h-64.507
				c-1.189,0-2.161-0.972-2.161-2.161S270.521,1114.441,271.709,1114.441z"/>
			<path style="fill:#699FF0;" d="M273.767,1124.215h64.507c1.189,0,2.161,0.972,2.161,2.161c0,1.188-0.972,2.16-2.161,2.16h-64.507
				c-1.188,0-2.161-0.972-2.161-2.16C271.606,1125.187,272.578,1124.215,273.767,1124.215z"/>
		</g>
		
			<rect x="378.456" y="1114.156" transform="matrix(0.9574 -0.2888 0.2888 0.9574 -312.6069 158.2172)" style="fill:#A53D38;" width="2.675" height="48.355"/>
		<path style="fill:#B64C41;" d="M386.269,1156.635c4.796,0,8.748,3.353,9.353,7.692h-18.706
			C377.522,1159.988,381.474,1156.635,386.269,1156.635z"/>
		<g>
			<path style="fill:#B64C41;" d="M374.012,1163.086c3.579,0,7.139-0.594,7.421-0.642l-0.104-0.608
				c-3.576,0.61-13.097,1.538-14.163-1.458c-0.474-1.328-0.031-3.566,0.583-6.665c1.115-5.637,2.8-14.154,0.82-26.038
				c-1.551-9.303-0.398-12.12,0.841-12.845c1.297-0.761,3.043,0.628,3.06,0.642l0.387-0.481c-0.086-0.069-2.102-1.665-3.759-0.694
				c-2.047,1.197-2.43,5.732-1.139,13.479c1.963,11.773,0.29,20.225-0.816,25.817c-0.632,3.195-1.089,5.504-0.559,6.992
				C367.291,1162.565,370.659,1163.086,374.012,1163.086z"/>
		</g>
	</g>
	<g>
		<g>
			<path style="fill:#2C3A64;" d="M1252.529,1591.978c0,0-13.126,12.165-10.565,20.809c2.561,8.644,14.406,14.407,16.007,24.971
				c1.6,10.564,8.003,16.327,13.766,16.327s27.473,0,27.473,0s4.242-7.434-6.002-9.675c-10.245-2.241-14.108-14.655-13.467-26.18
				c0.64-11.525-0.96-26.892-0.96-26.892l-21.77-5.122L1252.529,1591.978z"/>
			<path style="fill:#2C3A64;" d="M1416.121,1653.641c0.206,0.106,0.495,0.201,0.863,0.295h73.484
				c-0.64-2.6-2.996-7.545-11.599-8.943c-11.476-1.86-31.36-8.53-35.798-23.203c-0.139-0.473-0.267-0.958-0.378-1.448
				c-3.525-15.686-29.133,4.805-29.133,4.805s-0.078,0.624-0.189,1.687C1412.78,1632.588,1411.26,1651.208,1416.121,1653.641z"/>
			<path style="fill:#35488B;" d="M1475.821,1234.061c0,0-3.89,48.53-8.462,106.866c-6.214,79.245-13.686,176.583-14.425,195.023
				c-1.277,32.021-6.406,83.24-6.406,83.24s-12.159,12.168-36.496,7.04c0,0-21.687-73.117-27.881-150.478
				c-0.096-1.268-0.193-2.545-0.288-3.823c-5.763-78.755-14.724-244.59-14.724-244.59L1475.821,1234.061z"/>
			<path style="fill:#2C3A64;" d="M1475.821,1234.061c0,0-3.89,48.53-8.462,106.866l-85.208,134.824
				c-0.096-1.268-0.193-2.545-0.288-3.823c-5.763-78.755-14.724-244.59-14.724-244.59L1475.821,1234.061z"/>
			<path style="fill:#35488B;" d="M1458.058,1239.824c0,0-70.111,175.756-116.21,258.353
				c-46.101,82.596-60.507,105.646-60.507,105.646s-26.412-10.565-28.812-17.768c0,0,17.629-159.456,48.501-198.326
				c17.445-21.964,37.936-87.879,38.896-110.928c0.961-23.05,6.243-68.67,6.243-68.67L1458.058,1239.824z"/>
		</g>
		<g>
			<path style="fill:#F4AC75;" d="M1436.576,914.396c-26.122,8.24-71.324-14.006-71.324-14.006s20.381-15.294,22.662-47.022
				c0.038-0.436,0.064-0.871,0.083-1.314c0.135-2.351,0.167-4.799,0.083-7.33l7.15,5.76l26.763,21.579
				c0,0-1.371,10.636-1.922,28.365c4.241,2.326,7.637,4.895,10.213,7.182C1434.532,911.379,1436.576,914.396,1436.576,914.396z"/>
			<path style="fill:#F4AC75;" d="M1336.26,897.008c0,0,69.046-10.892,114.537,19.221c0,0,30.905,202.035,3.995,221.151
				c-26.91,19.116-118.532,0-118.532,0V897.008z"/>
			<path style="fill:#E9F2FF;" d="M1428.401,1354.726h-124.772c0,0,14.499-212.902,18.638-264.73
				c3.364-42.037,10.476-142.828,13.045-179.419c0.596-8.528,0.948-13.57,0.948-13.57l29.787-5.074l51.161,66.307
				c0,0,8.092,176.831,7.797,204.702c-0.288,27.87,3.229,136.465,3.396,154.725
				C1428.561,1335.921,1428.401,1354.726,1428.401,1354.726z"/>
			<path style="fill:#E9F2FF;" d="M1417.21,958.243l11.187,396.485h58.786c0,0-2.719-260.769-2.919-284.728
				s6.388-127.167-11.957-143.184c-15.335-13.39-52.236-26.39-52.236-26.39L1417.21,958.243z"/>
			<path style="fill:#E9F2FF;" d="M1420.449,891.277c0,0,16.759,11.547,16.129,15.692c-0.63,4.146-2.93,10.701-2.93,10.701
				l-10.251-2.082l8.65,6.086c0,0-9.81,28.606-14.836,36.568L1420.449,891.277z"/>
			<path style="opacity:0.2;fill:#B2CBFD;" d="M1328.284,1009.379c7.335-45.096,92.123,21.544,85.075,80.692
				c-13.04,109.428-68.565,231.438-109.731,264.656L1328.284,1009.379z"/>
			<path style="fill:#C97C47;" d="M1387.914,853.369c-0.115-0.813-0.378-1.211-0.378-1.211l0.461-0.103l7.234-1.57l26.763,21.579
				c0,0-1.158,10.048-1.986,28.411C1419.938,900.383,1392.429,885.155,1387.914,853.369z"/>
			<path style="fill:#F4AC75;" d="M1432.897,878.62c0,0-46.594-1.304-45.335-30.308c1.259-29.004-3.907-48.706,25.895-49.099
				c29.802-0.394,35.098,10.925,37.032,20.708S1445.05,878.212,1432.897,878.62z"/>
			<path style="fill:#2C3A64;" d="M1387.537,852.158c0,0,6.066,1.602,10.872-4.805c4.806-6.407,12.814-31.075,23.386-32.676
				c10.572-1.602,24.507,6.247,29.002,1.762c6.55-6.537,15-17.235,15-17.235s-52.438-37.385-73.368-20.087
				C1371.499,796.416,1364.172,821.724,1387.537,852.158z"/>
			<g>
				<path style="fill:#2C3A64;" d="M1450.467,955.74c-0.983-17.963-10.788-47.23-10.873-47.512l2.796,1.242
					c0.352,1.168,8.146,27.882,9.149,46.229L1450.467,955.74z"/>
			</g>
			<g>
				<path style="fill:#2C3A64;" d="M1382.606,1009.379c-0.983-1.021-24.969-24.092-19.853-40.252
					c1.994-6.299,5.664-8.774,9.558-10.61c3.632-1.322,12.107-2.701,16.487,0.053c7.992,5.028,12.02,18.923,13.204,42.032
					l-0.974,0.049c-1.405-27.41-8.474-37.335-13.752-39.573c-6.638-2.813-18.281-1.646-21.944,8.97
					c-2.523,7.314,2.427,17.54,7.021,24.56c5.102,7.797,10.661,14.709,10.719,14.769H1382.606z"/>
			</g>
			<path style="fill:#B64C41;" d="M1385.098,1011.87L1385.098,1011.87c-0.919,0.919-2.422,0.919-3.341,0l-1.642-1.642
				c-0.919-0.919-0.919-2.422,0-3.341l0,0c0.919-0.918,2.422-0.918,3.341,0l1.642,1.643
				C1386.017,1009.448,1386.017,1010.951,1385.098,1011.87z"/>
			<path style="fill:#B64C41;" d="M1401.604,1005.014L1401.604,1005.014c-1.3,0-2.363-1.063-2.363-2.363v-2.323
				c0-1.3,1.063-2.363,2.363-2.363l0,0c1.299,0,2.362,1.063,2.362,2.363v2.323
				C1403.966,1003.951,1402.903,1005.014,1401.604,1005.014z"/>
			<path style="fill:#2C3A64;" d="M1444.39,955.74c0-3.539,2.869-6.407,6.407-6.407c3.538,0,6.407,2.869,6.407,6.407
				c0,3.539-2.869,6.407-6.407,6.407C1447.258,962.147,1444.39,959.278,1444.39,955.74z"/>
			<path style="fill:#D6716B;" d="M1447.78,955.74c0-1.799,1.458-3.257,3.257-3.257c1.799,0,3.257,1.458,3.257,3.257
				c0,1.799-1.458,3.257-3.257,3.257C1449.238,958.997,1447.78,957.538,1447.78,955.74z"/>
			<g>
				<path style="fill:#B2CBFD;" d="M1421.76,1354.726c-0.041-0.4-4.078-40.335-2.914-75.047c0.492-14.665,0.076-31.908-0.325-48.583
					c-0.573-23.785-1.852-46.69,0.07-61.626c3.289-25.558,2.632-141.734,1.283-154.324c-1.315-12.274-0.058-25.742,1.159-29.801
					c1.241-4.137-4.075-26.793-4.134-27.023l0.621-0.16c0.245,0.948,5.98,23.261,4.688,27.569
					c-1.204,4.017-3.002,17.163-1.697,29.346c1.35,12.603,3.934,128.756,0.643,154.34c-1.915,14.887-2.565,37.904-1.992,61.663
					c0.402,16.684,0.818,33.936,0.325,48.62c-1.164,34.669,4.723,74.626,4.764,75.026H1421.76z"/>
			</g>
			<path style="fill:#E9F2FF;" d="M1525.082,1035.8c0,0,15.785,27.177-0.768,34.327c-16.553,7.151-18.34-0.384-18.34-0.384
				L1525.082,1035.8z"/>
			<path style="fill:#E9F2FF;" d="M1392.803,1052.541c0,0,2.51,5.12,2.227,9.717c-0.296,4.809-2.548,12.067-2.548,12.067
				s-97.465,20.747-116.405,3.402c-20.336-18.619,17.396-158.519,33.542-172.204c6.958-5.901,21.63-9.502,35.175-11.655
				c7.464-1.192,14.583-1.941,19.881-2.396c5.459-0.474,8.996-0.628,8.996-0.628l-2.198,8.124l-8.547,31.587l-9.963,36.841
				c0,0-29.793,61.323-30.754,67.089C1321.248,1040.252,1392.803,1052.541,1392.803,1052.541z"/>
			<path style="opacity:0.2;fill:#B2CBFD;" d="M1406.368,948.443c0,0-24.855-10.82-42.718-20.681
				c-11.663-6.438-17.633-18.491-18.856-33.894c7.464-1.192,14.583-1.941,19.881-2.396c0.859,0.276,1.371,0.461,1.371,0.461
				l5.427,7.035L1406.368,948.443z"/>
			<path style="fill:#E9F2FF;" d="M1417.21,958.243l-38.712-73.824c0,0-14.44,2.928-19.288,7.472c0,0,2.464,22.203,4.386,27.115
				c0,0,7.475-0.854,8.543-0.214c0,0-3.631,5.553-4.699,6.193C1367.441,924.985,1401.093,940.67,1417.21,958.243z"/>
			<g>
				<path style="fill:#2C3A64;" d="M1372.42,961.079c-2.645-5.844-25.958-55.634-20.023-68.303l2.28-0.282
					c-4.496,9.598,11.663,52.88,18.682,68.386L1372.42,961.079z"/>
			</g>
			<path style="opacity:0.5;fill:#B2CBFD;" d="M1423.795,1004.182c0-1.717,1.391-3.108,3.108-3.108c1.716,0,3.108,1.391,3.108,3.108
				c0,1.716-1.391,3.108-3.108,3.108C1425.186,1007.29,1423.795,1005.898,1423.795,1004.182z"/>
			<path style="opacity:0.5;fill:#B2CBFD;" d="M1423.795,1178.281c0-1.717,1.391-3.108,3.108-3.108c1.716,0,3.108,1.391,3.108,3.108
				c0,1.716-1.391,3.108-3.108,3.108C1425.186,1181.388,1423.795,1179.997,1423.795,1178.281z"/>
			<path style="opacity:0.5;fill:#B2CBFD;" d="M1425.364,1098.715c0-1.716,1.391-3.108,3.108-3.108c1.717,0,3.108,1.391,3.108,3.108
				c0,1.717-1.391,3.108-3.108,3.108C1426.756,1101.823,1425.364,1100.432,1425.364,1098.715z"/>
			<path style="opacity:0.5;fill:#B2CBFD;" d="M1425.364,1253.927c0-1.716,1.391-3.108,3.108-3.108c1.717,0,3.108,1.391,3.108,3.108
				c0,1.717-1.391,3.108-3.108,3.108C1426.756,1257.035,1425.364,1255.643,1425.364,1253.927z"/>
			<path style="fill:#7A97F3;" d="M1390.984,908.228c0,0,10.772,5.301,28.183,2.021l-1.957,47.994L1390.984,908.228z"/>
			<g>
				<polygon style="fill:#35488B;" points="1459.038,965.009 1559.842,974.041 1498.334,1083.306 1403.452,1077.857 				"/>
				<path style="fill:#B2CBFD;" d="M1468.326,964.505c0,0,0.043-15.443,8.58-14.376c8.536,1.067,11.114,16.583,11.114,16.583
					L1468.326,964.505z"/>
				<polygon style="fill:#7A97F3;" points="1559.185,972.662 1458.381,963.631 1402.794,1076.479 1403.475,1077.88 
					1459.062,965.032 1559.866,974.063 				"/>
				<path style="fill:#E9F2FF;" d="M1476.906,950.129c0,0,14.244,6.993,9.21,29.401c-5.034,22.407-11.305,34.699-7.65,47.953
					l67.904,6.234c0,0-7.379-17.62,0.819-35.454c8.198-17.834,2.374-38.215-5.151-39.989L1476.906,950.129z"/>
			</g>
			<path style="fill:#F4AC75;" d="M1510.819,1062.966c0,0-10.323-12.405-8.187-21.375c2.136-8.97,9.824-11.044,14.523-7.872
				c4.698,3.173,11.533,10.434,10.251,15.988C1526.124,1055.26,1516.016,1065.546,1510.819,1062.966z"/>
			<path style="fill:#F4AC75;" d="M1387.649,1055.584c0,0,17.488-7.689,25.497-5.446s18.813,3.844,19.658,6.728
				c0.845,2.884-5.761,13.557-15.593,14.096c-9.832,0.538-27.131,5.126-31.295,0
				C1381.75,1065.835,1387.649,1055.584,1387.649,1055.584z"/>
		</g>
	</g>
	<path style="fill:#283250;" d="M117.071,1658.229h2765.857c1.139,0,2.072-0.932,2.072-2.072l0,0c0-1.14-0.932-2.072-2.072-2.072
		H117.071c-1.139,0-2.071,0.933-2.071,2.072l0,0C115,1657.297,115.932,1658.229,117.071,1658.229z"/>
	<path style="fill:#466AA5;" d="M1116.89,889.772L1116.89,889.772c3.376,0,6.114-2.737,6.114-6.114v-69.723
		c0-3.377-2.737-6.114-6.114-6.114l0,0c-3.376,0-6.114,2.737-6.114,6.114v69.723C1110.776,887.035,1113.514,889.772,1116.89,889.772
		z"/>
	<path style="fill:#466AA5;" d="M1116.89,1490.082L1116.89,1490.082c3.376,0,6.114-2.737,6.114-6.113v-69.723
		c0-3.376-2.737-6.114-6.114-6.114l0,0c-3.376,0-6.114,2.737-6.114,6.114v69.723
		C1110.776,1487.344,1113.514,1490.082,1116.89,1490.082z"/>
	
		<ellipse transform="matrix(0.9732 -0.2298 0.2298 0.9732 -204.4583 397.8004)" style="fill:#699FF0;" cx="1606.043" cy="1076.904" rx="18.703" ry="18.703"/>
	<circle style="fill:#699FF0;" cx="1605.95" cy="1250.532" r="18.703"/>
	<path style="fill:#466AA5;" d="M1605.95,1249.819L1605.95,1249.819c4.03,0,7.297-3.267,7.297-7.297v-162.016
		c0-4.03-3.267-7.297-7.297-7.297l0,0c-4.03,0-7.297,3.267-7.297,7.297v162.016
		C1598.653,1246.552,1601.92,1249.819,1605.95,1249.819z"/>
</g>
</svg>
